<?xml version="1.0" standalone="no"?>
<!DOCTYPE svg PUBLIC "-//W3C//DTD SVG 20010904//EN"
 "http://www.w3.org/TR/2001/REC-SVG-20010904/DTD/svg10.dtd">
<svg version="1.0" xmlns="http://www.w3.org/2000/svg"
 width="1280.000000pt" height="918.000000pt" viewBox="0 0 1280.000000 918.000000"
 preserveAspectRatio="xMidYMid meet">
<metadata>
Created by potrace 1.15, written by Peter Selinger 2001-2017
</metadata>
<g transform="translate(0.000000,918.000000) scale(0.100000,-0.100000)"
fill="#000000" stroke="none">
<path d="M7985 8486 c-138 -44 -245 -149 -282 -276 -8 -30 -22 -63 -31 -72
-10 -12 -11 -18 -3 -18 16 0 61 -46 61 -63 0 -7 -15 -18 -33 -25 -18 -6 -48
-27 -67 -44 -94 -92 -93 -241 3 -325 50 -44 96 -56 187 -51 63 4 92 12 156 42
101 48 205 127 300 230 88 94 103 116 78 116 -9 0 -58 -40 -109 -89 -157 -152
-283 -221 -404 -221 -48 0 -65 5 -86 23 -38 32 -43 89 -13 146 29 56 73 80
172 94 l74 11 23 45 c13 25 25 49 27 54 2 4 -37 7 -86 7 -86 0 -92 1 -111 26
-27 35 -28 111 -2 162 28 54 99 121 156 148 88 42 185 25 185 -31 0 -40 -27
-58 -78 -51 -37 5 -43 4 -38 -10 3 -9 6 -19 6 -24 0 -20 54 -70 86 -79 96 -26
181 63 153 161 -12 45 -73 100 -128 116 -49 15 -145 14 -196 -2z"/>
<path d="M4784 8436 c-141 -44 -306 -184 -410 -346 -20 -32 -47 -63 -59 -68
-17 -8 -21 -17 -18 -36 3 -14 -2 -46 -11 -72 -20 -58 -21 -154 -2 -197 16 -39
61 -82 99 -96 136 -52 429 88 632 300 55 57 66 74 52 77 -11 2 -42 -19 -84
-59 -126 -117 -309 -220 -418 -234 -68 -9 -102 6 -122 52 -21 52 -13 140 15
163 19 15 20 21 10 48 -10 27 -8 38 22 99 25 50 57 91 124 158 99 98 161 136
237 143 40 4 49 1 58 -16 8 -16 6 -25 -11 -47 -17 -22 -27 -26 -57 -23 -20 3
-44 8 -54 13 -16 6 -16 4 -7 -21 25 -66 96 -103 169 -89 132 25 151 188 29
251 -33 17 -138 17 -194 0z"/>
<path d="M2681 8429 c-24 -5 -59 -19 -77 -31 -120 -83 -85 -278 51 -278 50 0
83 29 92 83 5 31 1 40 -25 67 -39 38 -50 38 -54 -2 -3 -29 -6 -33 -33 -33 -23
0 -31 5 -33 22 -2 12 2 31 8 42 10 19 20 21 125 21 l115 0 -71 -141 c-48 -97
-76 -143 -90 -146 -16 -5 -19 -11 -14 -33 5 -22 -13 -68 -84 -215 -102 -211
-125 -247 -181 -275 -101 -51 -200 9 -200 122 0 80 71 139 104 86 8 -13 7 -26
-1 -48 -11 -29 -10 -30 17 -30 15 0 39 9 54 21 95 75 55 199 -65 199 -80 0
-130 -36 -168 -120 -49 -107 -1 -231 108 -278 55 -23 150 -18 216 12 64 29
147 103 182 163 l25 43 29 -25 c131 -109 416 2 510 200 50 103 33 212 -40 264
l-29 21 69 68 c60 59 69 72 69 104 0 50 -8 66 -41 83 -48 26 -121 19 -213 -20
-17 -8 -17 -6 -2 23 9 17 16 33 16 37 0 8 -321 4 -369 -6z m499 -108 c0 -50
-92 -119 -217 -162 -31 -10 -53 -14 -53 -8 0 22 70 135 92 148 56 35 96 50
136 51 40 0 42 -2 42 -29z m-109 -270 c21 -22 29 -39 29 -65 0 -108 -141 -252
-267 -272 -42 -6 -113 16 -113 36 0 24 71 149 95 168 19 15 24 27 20 44 -3 13
2 38 12 58 20 40 66 58 146 59 41 1 53 -4 78 -28z"/>
<path d="M6012 8429 c-100 -19 -152 -77 -152 -168 0 -91 43 -140 123 -141 39
0 52 5 72 26 34 37 34 96 0 129 -32 33 -54 33 -52 -1 2 -33 -25 -54 -50 -38
-26 16 -27 47 -2 70 17 16 39 20 125 22 71 3 104 0 104 -7 0 -24 -131 -270
-151 -284 -14 -11 -22 -28 -24 -54 -1 -23 -32 -100 -78 -195 l-76 -158 68 0
c47 0 72 4 80 14 11 13 17 12 47 -6 29 -17 47 -20 112 -16 63 4 89 11 139 37
71 38 158 121 214 203 22 31 49 64 60 72 14 9 23 27 24 48 1 18 10 60 20 93
45 150 14 287 -75 333 -48 24 -88 24 -142 -3 -27 -13 -28 -13 -22 11 l6 24
-163 -1 c-90 -1 -184 -5 -207 -10z m424 -142 c55 -47 43 -187 -28 -330 -58
-115 -161 -218 -240 -242 -50 -14 -60 -14 -92 -1 l-35 15 26 58 c33 73 66 126
95 153 14 13 23 34 24 54 1 44 111 272 142 297 33 26 75 24 108 -4z"/>
<path d="M9665 8431 c-86 -21 -135 -74 -143 -152 -8 -90 44 -159 120 -159 81
0 130 96 75 148 -13 12 -33 22 -45 22 -19 0 -21 -2 -10 -19 22 -36 -30 -69
-60 -39 -18 18 -14 63 6 81 15 14 42 17 160 17 l142 0 -70 -140 c-50 -99 -78
-144 -94 -152 -20 -8 -24 -18 -24 -52 -1 -29 -18 -80 -60 -171 -129 -283 -195
-350 -306 -313 -49 16 -77 53 -83 112 -6 52 8 96 37 114 38 23 81 -19 60 -59
-16 -29 -6 -34 39 -20 54 16 81 52 81 108 0 36 -6 50 -30 75 -29 28 -35 30
-93 26 -79 -5 -116 -30 -151 -100 -63 -126 -11 -257 118 -298 55 -18 160 -8
221 21 83 39 133 100 218 267 84 163 82 162 174 162 49 0 53 2 92 49 23 27 41
52 41 55 0 3 -38 6 -85 6 l-85 0 75 150 75 150 150 0 150 0 25 50 c14 27 25
54 25 60 0 12 -696 13 -745 1z"/>
<path d="M1004 8411 c-123 -44 -256 -161 -353 -308 -30 -46 -62 -85 -73 -88
-12 -5 -18 -16 -18 -38 -1 -71 -124 -356 -182 -422 -63 -71 -144 -83 -207 -29
-57 48 -65 141 -16 190 45 45 101 19 74 -34 -7 -15 -15 -30 -17 -34 -6 -13 36
-9 73 6 64 27 86 120 42 172 -20 23 -34 28 -84 32 -70 5 -110 -11 -146 -60
-47 -64 -61 -164 -33 -231 17 -41 74 -91 121 -107 55 -18 161 -9 218 19 96 46
184 161 243 316 32 82 39 88 133 105 52 10 141 14 141 6 0 -2 -21 -47 -46
-100 -61 -130 -61 -177 3 -189 74 -14 334 106 301 139 -3 2 -25 -7 -49 -20
-64 -35 -127 -52 -141 -38 -15 15 81 214 115 236 18 13 23 23 19 42 -3 17 7
50 27 93 30 61 37 68 83 86 60 23 88 56 94 111 8 58 -21 103 -86 137 -66 33
-157 36 -236 8z m154 -73 c20 -20 14 -56 -14 -75 -22 -14 -31 -15 -57 -5 -38
14 -44 9 -31 -26 9 -23 4 -40 -35 -119 l-46 -93 -112 0 -113 0 26 43 c85 135
165 221 242 261 51 27 120 34 140 14z"/>
<path d="M11366 8405 c-127 -52 -256 -163 -338 -291 -25 -39 -58 -80 -72 -91
-14 -12 -25 -29 -24 -39 2 -11 -6 -58 -16 -107 -24 -111 -13 -179 39 -232 54
-54 144 -55 291 -5 56 20 57 20 70 1 20 -29 60 -34 122 -16 101 30 242 109
242 136 0 15 -10 13 -73 -11 -88 -35 -133 -41 -131 -20 1 8 31 77 67 153 l66
137 -147 0 -147 0 -27 -50 c-16 -28 -28 -52 -28 -55 0 -3 32 -5 70 -5 41 0 70
-4 70 -10 0 -6 -14 -38 -30 -71 -26 -51 -38 -63 -78 -81 -27 -12 -71 -21 -104
-22 -50 -1 -61 3 -84 26 -44 44 -44 168 0 168 10 0 12 11 8 45 -13 123 226
385 353 385 36 0 55 -15 55 -46 0 -33 -24 -47 -69 -40 -37 6 -39 5 -34 -17 30
-119 188 -141 253 -34 31 51 27 109 -12 153 -18 20 -47 43 -65 50 -53 22 -159
17 -227 -11z"/>
<path d="M10685 8296 c-42 -18 -106 -94 -147 -171 -24 -48 -38 -65 -53 -65
-12 0 -28 -12 -38 -29 -16 -28 -16 -29 3 -34 20 -5 20 -5 -1 -54 -11 -26 -32
-60 -46 -75 -14 -14 -22 -31 -19 -37 4 -5 -16 -54 -43 -108 l-49 -99 -84 -41
c-90 -45 -164 -108 -174 -150 -16 -62 86 -84 181 -39 75 35 126 98 204 254 38
76 81 153 96 170 15 17 24 36 20 41 -8 14 27 81 57 107 12 12 37 25 54 28 20
5 35 16 43 32 15 34 16 34 -29 34 l-39 0 13 38 c35 98 87 165 116 147 17 -11
11 -43 -11 -59 l-21 -14 22 -12 c25 -14 62 -7 84 16 43 43 -9 134 -76 134 -18
-1 -47 -7 -63 -14z m-441 -768 c-11 -34 -54 -96 -72 -103 -8 -3 -20 -1 -26 5
-16 16 20 74 62 98 46 27 45 27 36 0z"/>
<path d="M3840 8252 c-67 -14 -99 -31 -100 -54 0 -5 7 -8 15 -8 11 0 -5 -40
-56 -142 -39 -79 -82 -158 -96 -176 -13 -17 -21 -36 -18 -42 3 -5 -17 -54 -45
-110 l-50 -100 59 0 c35 0 61 5 63 11 3 8 14 6 37 -6 62 -31 152 3 236 91 142
148 156 354 24 354 -21 0 -49 -4 -63 -10 -14 -5 -26 -7 -26 -5 0 3 23 51 51
106 27 56 49 102 47 103 -2 1 -37 -4 -78 -12z m38 -254 c19 -19 14 -79 -12
-134 -29 -62 -115 -151 -159 -162 -35 -10 -57 -6 -57 10 0 17 71 128 81 128 6
0 8 9 4 19 -7 22 46 136 67 144 24 10 64 7 76 -5z"/>
<path d="M7355 8254 c-63 -14 -95 -32 -95 -56 0 -4 7 -8 15 -8 12 0 7 -16 -20
-70 l-35 -69 -36 15 c-32 13 -41 13 -87 0 -63 -19 -128 -69 -180 -139 -21 -29
-44 -56 -51 -62 -7 -5 -16 -32 -21 -60 -26 -152 24 -217 137 -180 36 11 54 13
61 6 19 -19 99 -12 152 13 67 32 135 83 135 101 0 12 -13 9 -60 -15 -60 -31
-100 -38 -100 -20 0 18 47 105 64 119 9 8 16 22 16 32 0 10 42 106 94 213 52
108 92 196 88 195 -4 0 -38 -7 -77 -15z m-177 -250 c29 -20 28 -49 -4 -81 -21
-21 -32 -25 -65 -20 -34 4 -38 3 -29 -12 5 -10 16 -23 24 -30 13 -11 10 -22
-24 -92 -41 -81 -60 -94 -100 -69 -23 14 -20 102 4 129 10 11 16 27 12 36 -18
48 74 140 154 154 3 1 16 -6 28 -15z"/>
<path d="M1657 8056 c-55 -20 -113 -63 -149 -110 -17 -23 -43 -53 -56 -68 -14
-15 -26 -40 -28 -55 -1 -15 -6 -49 -9 -75 -10 -64 8 -106 53 -125 29 -12 40
-12 89 2 46 13 57 14 64 3 21 -34 143 6 257 84 72 50 51 61 -34 17 -74 -38
-114 -49 -114 -29 0 24 50 119 70 133 12 8 19 20 16 25 -3 5 14 53 39 107 l45
96 -68 -1 c-37 -1 -83 1 -102 4 -20 4 -51 0 -73 -8z m101 -58 c37 -37 -16
-103 -75 -96 -39 5 -41 -4 -11 -34 l21 -21 -39 -76 c-40 -79 -67 -98 -100 -71
-22 19 -19 106 5 127 14 12 18 24 14 45 -8 39 40 107 92 128 30 13 79 12 93
-2z"/>
<path d="M5392 8044 c-61 -30 -206 -181 -209 -217 -1 -12 -4 -40 -8 -62 -5
-32 -2 -47 17 -74 71 -106 223 -101 390 12 27 18 48 39 48 48 0 12 -15 8 -71
-20 -56 -28 -87 -36 -140 -39 -62 -4 -70 -2 -93 21 -33 33 -37 101 -7 116 12
7 17 18 14 34 -13 65 120 188 159 149 17 -17 1 -42 -32 -49 l-31 -6 22 -23
c48 -51 129 -19 129 51 0 83 -87 110 -188 59z"/>
<path d="M8713 8046 c-49 -23 -113 -79 -180 -160 -27 -31 -33 -50 -39 -106 -5
-55 -3 -73 11 -98 38 -64 130 -86 249 -58 72 17 173 65 201 97 30 32 12 40
-29 13 -110 -75 -284 -85 -310 -19 -16 43 -8 53 52 65 162 34 262 110 262 200
-1 61 -39 90 -117 90 -30 0 -68 -9 -100 -24z m116 -64 c24 -45 -43 -117 -143
-152 -74 -26 -78 -26 -65 8 19 50 63 105 108 134 51 32 86 36 100 10z"/>
<path d="M12115 8045 c-27 -13 -61 -34 -75 -47 -54 -50 -135 -153 -137 -172
-1 -12 -5 -51 -9 -88 -7 -66 -6 -67 26 -100 21 -21 28 -34 20 -36 -23 -8 -91
-75 -106 -105 -14 -25 -14 -31 0 -51 27 -43 102 -43 186 0 59 29 101 75 138
149 l30 60 106 39 c81 30 106 43 106 57 0 16 -7 15 -87 -12 -47 -16 -88 -27
-90 -25 -8 8 47 105 68 120 12 8 18 19 14 26 -4 6 14 51 39 99 25 49 46 92 46
96 0 4 -32 5 -70 3 -39 -3 -73 -1 -76 3 -10 17 -79 9 -129 -16z m123 -47 c18
-18 14 -56 -9 -79 -16 -16 -30 -20 -60 -17 -45 4 -47 0 -18 -35 l20 -27 -38
-72 c-39 -76 -67 -94 -99 -68 -22 19 -19 106 6 127 13 11 18 24 14 39 -6 24
14 70 42 96 48 43 117 61 142 36z m-213 -448 c-28 -55 -69 -90 -86 -73 -16 16
15 68 58 98 21 14 41 25 45 25 5 0 -3 -22 -17 -50z"/>
<path d="M880 7030 c-214 -5 -233 -10 -283 -70 -67 -79 -35 -209 59 -240 94
-31 165 81 95 151 -32 31 -57 39 -47 13 9 -24 -12 -54 -39 -54 -46 0 -44 73 3
91 36 14 212 10 212 -5 -1 -27 -137 -272 -155 -280 -15 -6 -20 -18 -21 -45 0
-24 -25 -91 -77 -201 -83 -176 -123 -243 -164 -274 -36 -26 -111 -33 -150 -12
-73 37 -100 150 -48 201 30 31 90 35 98 6 5 -19 -9 -51 -27 -63 -6 -4 2 -8 17
-8 97 0 151 111 89 181 -59 66 -182 44 -239 -42 -49 -74 -44 -194 10 -256 46
-52 98 -73 182 -72 166 0 241 66 365 321 l51 106 57 11 c78 15 172 25 172 18
0 -3 -21 -48 -46 -100 -52 -108 -58 -151 -24 -179 30 -24 57 -23 146 7 101 34
194 82 194 100 0 19 3 19 -65 -10 -75 -33 -145 -44 -145 -22 0 31 88 204 114
224 20 16 25 27 21 45 -4 17 23 80 100 232 58 115 104 211 102 213 -10 9 -203
-39 -214 -54 -17 -23 -16 -43 2 -43 8 0 15 -2 15 -4 0 -2 -31 -70 -69 -150
l-70 -146 -105 0 c-59 0 -106 4 -106 8 0 5 43 98 96 206 53 109 94 198 92 199
-2 1 -91 0 -198 -3z"/>
<path d="M2705 7015 c-55 -20 -111 -81 -120 -133 -14 -87 59 -179 134 -168
100 15 119 152 25 180 -18 6 -20 3 -16 -25 4 -30 -15 -59 -39 -59 -16 0 -39
32 -39 54 0 46 27 56 148 56 l112 0 -70 -140 c-39 -77 -79 -144 -90 -150 -14
-8 -20 -21 -20 -45 0 -37 -92 -235 -137 -294 -70 -92 -200 -85 -247 13 -36 76
-5 176 54 176 39 0 56 -29 41 -72 -6 -17 -9 -33 -6 -36 12 -12 82 27 102 57
85 125 -86 226 -208 124 -86 -73 -93 -242 -12 -315 10 -10 41 -27 68 -39 96
-42 216 -14 311 73 36 34 107 136 143 208 4 8 22 24 39 36 21 15 28 25 22 35
-15 23 -2 53 107 272 l103 207 -182 0 c-131 -1 -194 -5 -223 -15z"/>
<path d="M4216 7015 c-54 -19 -105 -73 -116 -122 -16 -71 17 -144 77 -169 46
-20 86 -10 119 29 21 25 25 38 20 66 -6 38 -29 65 -64 76 -20 6 -21 4 -12 -20
8 -20 6 -29 -10 -45 -24 -24 -34 -25 -54 -4 -20 20 -20 43 0 72 14 21 23 22
129 22 l114 0 -64 -132 c-36 -73 -76 -142 -90 -153 -17 -14 -25 -31 -25 -53 0
-35 -153 -363 -196 -419 -95 -125 -267 -78 -267 72 0 77 57 139 98 105 18 -15
20 -71 3 -88 -25 -25 50 -13 81 14 85 71 40 194 -71 194 -47 0 -119 -39 -145
-79 -136 -204 77 -414 307 -305 104 50 159 114 241 282 50 104 77 147 98 160
21 13 26 22 21 37 -10 28 4 64 114 283 l96 192 -182 0 c-130 -1 -194 -5 -222
-15z"/>
<path d="M5763 7020 c-82 -19 -143 -88 -143 -163 0 -116 110 -187 189 -121 41
34 44 92 6 129 -32 33 -54 33 -52 -1 4 -56 -64 -57 -71 -1 -5 44 28 57 145 57
63 0 103 -4 103 -10 0 -28 -123 -251 -149 -271 -23 -17 -29 -29 -29 -61 -1
-61 -178 -417 -226 -453 -47 -36 -117 -45 -161 -21 -86 46 -96 193 -16 233 49
24 86 -20 58 -69 -16 -28 -16 -28 9 -28 37 0 78 25 92 55 44 97 -38 185 -145
156 -87 -24 -142 -101 -143 -199 0 -165 174 -257 342 -180 101 47 151 104 234
271 58 115 81 152 107 167 17 11 35 20 38 20 3 0 14 -51 23 -112 10 -62 24
-127 31 -145 19 -45 56 -67 105 -60 80 10 230 97 230 133 0 10 -19 4 -69 -21
-37 -19 -82 -35 -99 -35 -38 0 -44 17 -67 195 l-17 129 24 21 c14 11 57 46 96
77 39 31 96 88 127 125 55 67 115 161 115 180 0 6 -39 3 -97 -9 -80 -16 -102
-24 -122 -46 -21 -23 -22 -27 -8 -30 9 -2 17 -7 17 -12 0 -24 -254 -259 -267
-246 -2 2 34 81 81 175 47 94 86 173 86 176 0 8 -341 4 -377 -5z"/>
<path d="M7700 7008 c-67 -14 -100 -25 -112 -40 -22 -25 -23 -38 -2 -38 21 0
14 -19 -62 -171 -48 -97 -68 -128 -86 -132 -21 -6 -23 -11 -20 -46 3 -33 -7
-61 -66 -175 -60 -117 -67 -136 -50 -136 24 0 70 -23 132 -68 118 -83 194 -99
281 -58 61 29 97 66 126 130 50 113 -19 236 -133 236 -67 0 -130 -60 -130
-126 0 -52 33 -84 89 -84 l43 0 -15 24 c-19 29 -8 61 25 71 81 26 103 -96 32
-173 -32 -34 -98 -58 -134 -49 -41 11 -90 50 -124 100 l-33 48 45 90 c30 61
53 93 70 101 21 10 24 16 18 40 -5 24 14 71 101 249 58 122 105 222 103 223
-2 2 -46 -6 -98 -16z"/>
<path d="M11659 7012 c-115 -38 -232 -141 -344 -300 -32 -46 -68 -87 -80 -92
-17 -7 -21 -14 -18 -33 3 -14 -5 -64 -17 -113 -33 -132 -14 -215 56 -249 107
-51 277 31 445 215 45 49 90 92 100 95 10 3 15 13 12 23 -2 9 10 49 28 87 79
174 78 299 -3 358 -37 28 -111 31 -179 9z m72 -114 c7 -13 10 -51 7 -100 -4
-70 -10 -90 -57 -185 -42 -84 -68 -120 -124 -178 -82 -82 -133 -106 -174 -80
-41 28 -38 140 5 164 12 7 16 20 13 49 -2 40 19 95 62 156 l20 28 13 -38 c18
-54 65 -94 110 -94 48 0 84 37 84 85 0 62 -41 117 -50 68 -7 -39 -34 -52 -59
-29 -25 23 -27 65 -6 107 33 62 132 92 156 47z"/>
<path d="M9652 7001 c-41 -14 -52 -15 -48 -5 4 12 -26 14 -171 14 -201 0 -241
-8 -294 -61 -63 -63 -60 -160 7 -218 46 -41 100 -43 138 -5 46 47 29 131 -30
148 -18 6 -20 3 -16 -23 4 -26 0 -31 -23 -37 -21 -5 -31 -2 -42 11 -17 24 -16
36 1 60 12 17 30 20 125 23 78 3 111 1 111 -7 0 -6 -27 -65 -60 -131 -39 -78
-70 -127 -90 -142 -20 -15 -28 -28 -25 -39 7 -21 -34 -146 -80 -246 -48 -104
-120 -208 -160 -233 -42 -26 -113 -29 -148 -5 -27 18 -57 80 -57 121 0 45 27
93 56 100 55 14 82 -31 43 -72 l-22 -24 31 0 c23 0 43 10 70 34 32 30 37 40
37 80 0 36 -6 51 -28 73 -24 24 -35 28 -86 28 -51 0 -65 -4 -98 -31 -59 -47
-85 -106 -81 -181 7 -116 91 -193 211 -193 79 0 125 15 183 59 69 52 116 118
187 261 46 92 70 130 95 146 18 13 28 25 22 29 -20 13 -9 48 65 196 76 150 76
150 128 175 63 29 87 31 87 5 0 -35 -100 -221 -142 -264 -32 -33 -41 -49 -39
-72 1 -21 -23 -82 -78 -193 -45 -90 -81 -165 -81 -167 0 -3 33 -5 73 -5 l74 0
67 141 c47 97 76 145 94 157 22 14 26 23 24 49 -2 23 17 71 72 181 l75 150 56
21 c61 23 85 26 85 11 0 -5 -21 -58 -47 -117 -35 -81 -59 -120 -94 -155 -34
-34 -46 -53 -42 -67 3 -13 -18 -70 -56 -149 -34 -71 -61 -141 -61 -155 0 -41
45 -70 98 -63 87 12 273 108 251 130 -3 4 -35 -7 -71 -24 -68 -32 -138 -49
-137 -34 0 5 21 52 47 104 32 65 57 102 78 115 26 18 29 24 21 43 -8 18 5 53
82 210 50 103 91 194 91 202 0 9 -7 26 -16 39 -16 22 -22 23 -93 19 -47 -3
-94 -13 -123 -26 -27 -11 -48 -17 -48 -12 0 42 -105 53 -198 21z"/>
<path d="M1801 6846 c-36 -7 -58 -18 -69 -33 -13 -21 -13 -23 2 -23 9 0 16 -2
16 -5 0 -20 -162 -324 -175 -329 -10 -4 -15 -12 -11 -22 3 -8 -17 -60 -44
-114 -28 -55 -50 -102 -50 -105 0 -3 26 -5 59 -5 l58 0 42 93 c24 50 54 104
68 119 14 14 22 31 19 37 -10 15 20 73 53 105 35 33 101 47 101 22 0 -23 -16
-53 -56 -103 -19 -23 -34 -49 -34 -57 0 -9 -14 -44 -31 -77 -77 -153 14 -182
204 -66 41 26 67 48 67 59 0 15 -7 13 -47 -12 -59 -38 -112 -55 -125 -42 -11
11 40 108 71 137 11 9 18 22 15 29 -3 7 9 41 26 77 33 71 39 123 14 133 -27
11 -90 7 -133 -9 -22 -8 -41 -12 -41 -9 0 2 23 49 50 104 28 55 50 102 50 105
0 7 -38 4 -99 -9z"/>
<path d="M6847 6845 c-58 -12 -103 -46 -71 -53 8 -2 14 -5 14 -8 0 -19 -163
-323 -175 -328 -10 -4 -15 -12 -11 -22 3 -8 -14 -58 -39 -111 -25 -53 -45 -98
-45 -99 0 -2 24 -4 53 -4 l53 0 44 90 c38 77 72 120 95 120 3 0 5 -42 5 -94 0
-103 10 -126 56 -126 56 0 224 99 224 132 0 15 -8 13 -50 -13 -28 -17 -65 -32
-83 -33 l-32 -1 -2 100 -3 100 45 35 c25 19 67 56 92 83 l47 47 -61 0 c-59 0
-62 -1 -131 -59 -38 -32 -75 -62 -81 -66 -7 -4 24 66 68 154 45 88 81 163 81
166 0 7 -28 5 -93 -10z"/>
<path d="M8485 6849 c-22 -5 -50 -11 -61 -14 -26 -6 -40 -35 -22 -46 10 -6 -6
-46 -62 -160 -41 -83 -84 -159 -95 -168 -11 -9 -19 -23 -17 -33 2 -9 -11 -44
-27 -77 -38 -75 -39 -105 -5 -127 22 -15 32 -16 76 -5 76 17 235 117 217 135
-3 3 -32 -7 -65 -24 -58 -29 -120 -47 -130 -37 -7 7 51 120 70 136 9 8 16 22
16 32 0 11 43 105 95 209 105 209 104 200 10 179z"/>
<path d="M3399 6771 c-45 -45 -34 -91 21 -91 29 1 52 16 68 47 16 29 15 39 -4
57 -23 24 -52 19 -85 -13z"/>
<path d="M4928 6780 c-30 -23 -38 -47 -27 -78 19 -50 119 -7 119 51 0 48 -48
62 -92 27z"/>
<path d="M10585 6653 c-28 -8 -51 -11 -53 -5 -1 5 -33 3 -78 -6 -55 -11 -78
-20 -85 -35 -8 -14 -8 -22 1 -27 13 -8 -27 -96 -54 -119 -9 -8 -16 -22 -16
-32 0 -11 -23 -64 -50 -119 l-50 -100 58 0 58 0 44 90 c24 49 54 100 67 114
13 14 23 35 23 46 0 11 9 38 20 59 15 30 30 43 64 56 24 10 49 16 55 14 12 -4
-30 -92 -60 -125 -11 -11 -19 -30 -19 -42 0 -12 -20 -63 -45 -112 -25 -49 -45
-92 -45 -95 0 -3 24 -5 53 -5 l52 0 54 106 c29 58 60 108 67 111 8 3 14 19 14
38 0 38 36 87 81 110 27 15 69 20 69 10 0 -18 -62 -124 -75 -129 -10 -4 -14
-13 -11 -24 3 -10 -9 -50 -29 -91 -19 -40 -35 -79 -35 -86 0 -22 30 -45 58
-45 55 0 241 106 242 138 0 17 -3 16 -58 -18 -27 -16 -64 -33 -82 -36 -31 -7
-32 -6 -25 17 13 42 42 93 64 113 11 10 18 23 15 28 -3 5 8 42 25 83 38 90 39
112 6 127 -25 11 -117 -2 -157 -23 -13 -7 -23 -4 -38 11 -23 23 -56 24 -125 3z"/>
<path d="M12347 6655 c-59 -22 -131 -79 -185 -148 -98 -125 -90 -273 15 -293
84 -16 197 50 273 158 43 62 58 75 101 91 27 10 72 40 102 67 50 47 51 49 26
50 -15 0 -50 -16 -79 -35 -67 -45 -78 -45 -76 4 2 98 -74 143 -177 106z m61
-85 c3 -48 -9 -65 -37 -51 -37 20 -22 96 19 89 9 -2 16 -16 18 -38z m-59 -105
l31 -15 -31 -49 c-34 -56 -105 -124 -122 -118 -20 7 -14 100 8 133 11 16 20
43 20 61 1 18 8 39 15 48 11 14 15 12 31 -14 10 -17 32 -37 48 -46z"/>
<path d="M3382 6642 c-50 -12 -77 -23 -84 -36 -7 -13 -7 -20 2 -26 13 -8 -26
-96 -54 -119 -9 -8 -16 -22 -16 -33 0 -10 -13 -45 -30 -78 -35 -68 -38 -100
-12 -123 29 -27 83 -20 161 19 68 34 150 98 139 109 -3 3 -39 -12 -79 -34 -84
-46 -109 -51 -109 -21 0 30 47 118 69 130 12 6 17 17 14 28 -2 11 15 59 41
111 26 50 43 91 39 90 -5 0 -41 -8 -81 -17z"/>
<path d="M4911 6643 c-45 -9 -80 -21 -87 -31 -18 -23 -17 -32 1 -32 12 0 9
-13 -15 -60 -17 -34 -38 -64 -46 -67 -8 -3 -13 -12 -10 -20 3 -8 -19 -63 -49
-123 l-55 -110 -86 -42 c-48 -23 -105 -60 -130 -85 -38 -36 -45 -49 -42 -75 4
-43 37 -61 100 -54 91 10 170 72 236 187 29 52 40 61 151 124 107 60 141 88
127 103 -3 2 -48 -19 -102 -47 -53 -29 -98 -50 -101 -48 -7 8 63 141 85 160
11 11 18 25 16 32 -3 7 16 54 41 105 25 51 45 93 43 94 -2 2 -36 -3 -77 -11z
m-319 -560 c-25 -47 -58 -83 -77 -83 -22 0 -18 33 7 65 21 27 79 68 86 61 2
-2 -6 -21 -16 -43z"/>
<path d="M1330 5626 c-19 -7 -43 -17 -52 -21 -11 -4 -18 -3 -18 4 0 8 -57 11
-187 11 -161 0 -194 -3 -229 -19 -109 -50 -134 -185 -49 -260 60 -52 134 -40
161 26 17 39 11 68 -19 101 -23 25 -60 31 -51 8 8 -22 -14 -56 -36 -56 -42 0
-46 78 -5 94 23 9 227 8 223 -1 -1 -5 -33 -67 -70 -139 -46 -89 -75 -134 -92
-142 -18 -8 -22 -16 -19 -34 5 -27 -72 -240 -120 -331 -36 -69 -98 -142 -138
-162 -47 -25 -114 -19 -149 13 -78 69 -63 212 21 212 43 0 63 -45 33 -75 -24
-23 -10 -30 35 -16 54 16 81 52 81 108 0 36 -6 50 -29 74 -25 24 -37 29 -81
29 -61 0 -96 -16 -138 -64 -75 -86 -66 -216 21 -293 48 -42 97 -56 176 -51
135 10 233 93 323 274 l52 104 29 -27 c25 -25 36 -28 90 -27 69 0 103 14 183
75 141 108 256 334 240 473 -7 61 -28 94 -71 112 -42 17 -69 17 -115 0z m38
-103 c31 -42 1 -170 -64 -269 -69 -105 -204 -205 -254 -189 -32 10 -36 46 -7
69 19 16 24 27 20 47 -3 19 16 67 72 178 71 143 78 153 118 172 47 22 95 18
115 -8z"/>
<path d="M5022 5621 c-41 -14 -52 -15 -48 -5 4 12 -26 14 -172 14 -97 0 -194
-5 -216 -11 -21 -6 -57 -28 -79 -48 -37 -35 -41 -43 -45 -98 -5 -71 13 -114
61 -143 60 -37 122 -20 147 39 15 36 7 74 -20 101 -24 24 -52 27 -44 5 4 -8 3
-27 0 -41 -5 -20 -12 -25 -34 -22 -23 3 -27 8 -30 39 -5 60 13 69 134 69 57 0
104 -2 104 -5 0 -3 -32 -66 -71 -140 -54 -104 -76 -136 -94 -141 -20 -5 -23
-11 -19 -32 9 -47 -86 -276 -168 -405 -75 -118 -242 -142 -284 -41 -19 46 -12
112 18 149 16 20 28 25 52 23 26 -3 32 -8 34 -32 2 -16 -1 -33 -7 -39 -29 -29
10 -37 58 -13 87 46 78 175 -14 206 -74 24 -158 -19 -199 -101 -50 -102 -25
-213 62 -274 40 -27 51 -30 125 -30 70 0 91 4 140 29 93 45 154 115 231 265
88 171 92 172 166 21 70 -141 83 -155 149 -147 79 9 231 97 231 133 0 10 -18
5 -67 -19 -77 -39 -113 -49 -130 -39 -6 4 -32 51 -57 105 -40 86 -43 99 -28
104 128 45 193 85 261 158 84 91 123 231 84 305 -40 77 -122 99 -231 61z m61
-82 c29 -16 37 -28 37 -60 0 -84 -89 -208 -191 -264 -52 -28 -158 -59 -168
-49 -9 9 164 346 183 356 51 28 106 34 139 17z"/>
<path d="M8096 5615 c-79 -28 -136 -114 -120 -182 17 -71 69 -123 122 -123 60
0 112 61 98 115 -14 56 -89 94 -78 40 9 -52 -50 -77 -68 -29 -7 18 -7 34 3 52
l12 27 148 3 c81 1 147 -1 146 -5 0 -5 -28 -64 -62 -133 -43 -87 -71 -130 -92
-145 -25 -16 -29 -26 -27 -53 5 -52 -128 -342 -199 -433 -37 -47 -76 -63 -140
-57 -69 7 -100 38 -107 107 -8 84 15 131 64 131 26 0 41 -33 29 -69 -5 -18 -2
-21 25 -21 45 0 100 56 100 102 0 115 -136 154 -235 67 -72 -64 -88 -208 -32
-283 60 -78 167 -103 288 -67 109 34 162 92 264 291 61 118 86 158 108 168 24
12 26 16 16 34 -10 19 0 45 72 190 l84 168 150 0 151 0 27 55 c15 31 27 58 27
60 0 3 -165 5 -367 5 -287 -1 -377 -4 -407 -15z"/>
<path d="M9347 5615 c-83 -29 -121 -89 -115 -178 4 -54 8 -63 41 -93 30 -28
45 -34 81 -34 37 0 48 5 70 31 34 40 35 91 1 124 -31 32 -55 32 -55 1 0 -30
-23 -50 -50 -41 -25 8 -28 56 -4 79 20 21 250 24 241 4 -3 -7 -37 -71 -74
-143 -46 -88 -76 -134 -93 -142 -20 -10 -24 -18 -22 -48 3 -26 -11 -66 -52
-154 -31 -66 -56 -130 -56 -144 0 -16 10 -34 28 -47 24 -20 36 -22 112 -18 51
3 109 13 145 26 70 26 75 26 75 7 0 -40 93 -46 192 -11 95 33 158 72 158 97 0
19 -2 18 -49 -6 -57 -29 -132 -48 -144 -36 -4 4 16 57 45 116 37 77 61 113 81
124 23 14 26 21 21 45 -5 23 14 68 97 237 56 115 100 211 98 213 -2 2 -50 -5
-105 -16 -88 -18 -103 -24 -113 -45 -14 -31 -14 -33 4 -33 8 0 15 -2 15 -4 0
-3 -31 -70 -69 -149 -50 -107 -75 -147 -91 -152 -17 -5 -20 -12 -16 -30 9 -35
-85 -220 -121 -238 -48 -25 -143 -49 -169 -43 -31 8 -30 27 2 96 27 59 69 110
91 110 9 0 13 15 13 45 0 37 18 80 100 245 55 110 100 204 100 210 0 16 -366
12 -413 -5z"/>
<path d="M11035 5611 c-85 -38 -130 -123 -106 -201 33 -110 171 -136 211 -41
15 37 7 74 -22 101 -31 29 -54 26 -53 -6 0 -38 -28 -53 -54 -30 -26 24 -27 48
-3 69 15 14 41 17 136 17 l117 0 -72 -141 c-50 -98 -78 -144 -95 -151 -19 -9
-24 -19 -24 -47 0 -24 -20 -77 -55 -151 -31 -65 -55 -128 -55 -147 0 -48 38
-73 110 -73 117 0 247 70 383 205 41 42 89 80 106 86 26 9 31 16 31 41 0 19
16 57 42 97 53 84 200 385 190 389 -5 1 -50 -6 -102 -17 -70 -14 -99 -25 -112
-41 -23 -29 -23 -40 2 -40 19 0 14 -14 -45 -130 -61 -120 -99 -170 -130 -170
-7 0 -15 -19 -17 -45 -6 -47 -44 -104 -118 -173 -61 -59 -147 -91 -165 -62
-11 18 58 144 87 158 23 11 26 17 21 45 -4 27 13 69 104 247 59 118 109 218
111 223 2 4 -83 7 -190 7 -165 0 -199 -3 -233 -19z"/>
<path d="M2865 5602 c-121 -42 -225 -129 -330 -278 -38 -53 -79 -101 -92 -107
-16 -7 -22 -16 -18 -28 4 -10 -4 -53 -15 -96 -46 -164 -11 -265 102 -288 20
-4 29 -14 38 -42 56 -176 232 -273 367 -204 93 47 131 176 83 276 -52 108
-186 124 -227 27 -20 -47 -4 -103 36 -131 37 -26 41 -26 41 2 0 13 6 32 14 42
12 16 19 18 43 10 63 -23 62 -107 -2 -164 -79 -69 -191 -45 -229 50 -9 22 -19
67 -23 99 l-6 58 40 20 c62 32 144 103 208 181 32 40 70 78 85 86 19 10 28 22
28 39 0 13 11 48 25 77 45 96 60 152 61 226 1 82 -16 116 -75 145 -43 22 -90
22 -154 0z m55 -107 c29 -34 2 -182 -52 -290 -26 -50 -99 -154 -127 -179 -18
-16 -21 -17 -21 -3 0 20 -56 67 -81 67 -17 0 -19 -4 -13 -22 18 -52 -2 -118
-36 -118 -47 0 -50 104 -5 158 16 20 22 35 18 55 -4 20 6 51 33 105 l38 77 7
-34 c21 -99 125 -143 179 -74 27 34 27 102 0 134 -19 23 -19 23 -20 3 0 -31
-37 -61 -58 -48 -39 25 -26 103 24 151 39 36 92 45 114 18z"/>
<path d="M6578 5601 c-171 -55 -292 -194 -292 -335 1 -98 50 -166 159 -216
l60 -28 -33 -19 c-22 -12 -30 -23 -26 -33 35 -81 26 -144 -28 -206 -60 -69
-136 -90 -204 -58 -45 21 -68 66 -67 129 1 40 5 53 27 72 22 19 31 21 48 12
16 -9 19 -17 15 -46 -6 -34 -5 -35 21 -28 55 14 98 76 88 130 -21 110 -196
111 -261 1 -31 -53 -39 -93 -31 -150 17 -109 122 -193 230 -184 163 14 322
175 334 339 6 86 -5 104 -89 148 -118 62 -142 103 -115 195 21 71 69 133 134
172 83 50 159 53 189 8 14 -22 14 -26 -1 -49 -13 -20 -25 -25 -57 -25 l-40 0
18 -31 c20 -35 79 -69 119 -69 70 0 124 55 124 125 0 128 -157 198 -322 146z"/>
<path d="M8995 5455 c-5 -2 -36 -9 -68 -15 -40 -8 -60 -18 -68 -32 -8 -15 -8
-22 1 -28 8 -5 3 -23 -16 -63 -24 -49 -32 -57 -56 -57 -21 0 -32 -7 -40 -26
-12 -25 -6 -36 26 -47 11 -4 -61 -134 -79 -140 -8 -4 -11 -14 -8 -25 2 -11 -9
-47 -26 -80 -17 -34 -31 -72 -31 -86 0 -31 25 -56 56 -56 72 0 324 117 324
151 0 4 -39 -11 -87 -33 -89 -42 -173 -61 -173 -39 0 17 49 113 70 136 10 11
20 36 24 56 11 60 46 103 92 113 29 6 46 16 57 36 23 38 22 40 -18 40 -19 0
-35 2 -35 4 0 3 20 48 44 100 41 88 43 102 11 91z"/>
<path d="M7165 5266 c-16 -7 -41 -26 -55 -41 -22 -24 -25 -35 -25 -106 0 -67
3 -80 18 -85 18 -6 44 -49 57 -95 15 -50 -30 -84 -84 -63 -27 10 -20 60 12 83
l27 20 -32 1 c-67 0 -133 -44 -133 -90 0 -97 199 -123 295 -38 45 39 47 81 6
154 -17 28 -27 54 -24 58 3 3 -6 17 -20 30 -34 31 -35 69 -2 101 28 29 38 31
59 9 19 -18 20 -28 6 -55 -9 -15 -7 -21 5 -25 26 -10 72 16 86 47 10 26 9 34
-8 57 -11 15 -31 33 -44 39 -31 16 -106 16 -144 -1z"/>
<path d="M1901 5245 c-107 -20 -115 -22 -129 -45 -10 -17 -10 -20 3 -20 8 0
15 -2 15 -5 0 -15 -50 -102 -68 -118 -11 -10 -18 -26 -15 -36 3 -10 -37 -101
-91 -209 -53 -106 -96 -194 -96 -197 0 -3 24 -5 53 -5 l53 0 54 110 c42 85 58
109 70 104 40 -19 100 -16 145 7 42 21 128 104 184 179 42 55 48 186 10 226
-26 28 -69 30 -188 9z m83 -51 c12 -4 16 -20 16 -56 0 -39 -5 -54 -26 -75 -14
-14 -23 -31 -20 -38 6 -17 -54 -87 -98 -114 -30 -19 -86 -29 -86 -16 0 17 63
127 76 132 8 3 13 12 10 19 -7 19 42 121 67 139 23 16 37 18 61 9z"/>
<path d="M3562 5249 c-74 -29 -223 -186 -227 -238 -1 -15 -6 -46 -10 -71 -16
-101 49 -159 141 -127 l41 14 -29 -64 -30 -64 33 -49 34 -50 104 208 c57 114
110 211 117 215 8 4 14 19 14 33 0 13 18 60 40 104 22 44 40 82 40 85 0 10
-109 5 -115 -5 -4 -7 -14 -5 -28 5 -24 17 -89 19 -125 4z m99 -49 c13 -8 19
-21 19 -45 0 -45 -35 -70 -85 -62 -38 6 -39 0 -3 -39 19 -22 19 -22 -16 -92
-21 -42 -44 -73 -56 -77 -31 -10 -59 4 -66 31 -9 37 3 96 22 107 11 6 14 17
10 33 -12 45 44 115 114 143 33 13 38 13 61 1z"/>
<path d="M5611 5240 c-55 -12 -78 -22 -89 -38 -13 -20 -13 -22 2 -22 14 0 12
-8 -10 -52 -14 -29 -35 -63 -47 -75 -11 -13 -18 -26 -14 -29 3 -4 -16 -51 -43
-105 -28 -54 -50 -101 -50 -104 0 -3 25 -5 55 -5 l54 0 48 93 c26 50 58 102
70 115 12 12 20 28 17 36 -14 36 78 151 115 144 24 -5 25 -44 1 -68 -17 -17
-18 -21 -5 -26 51 -20 125 31 125 87 0 47 -25 62 -91 56 -32 -3 -59 -2 -61 2
-2 3 -36 -1 -77 -9z"/>
<path d="M10381 5246 c-36 -7 -58 -18 -69 -33 -13 -21 -13 -23 2 -23 9 0 16
-2 16 -5 0 -15 -45 -93 -67 -117 -14 -14 -22 -31 -19 -37 4 -5 -9 -42 -29 -80
-54 -107 -46 -141 32 -141 24 0 69 9 100 20 56 20 56 20 70 0 24 -33 72 -25
182 31 95 48 130 73 119 84 -3 3 -35 -8 -71 -25 -71 -32 -107 -38 -107 -17 0
17 55 110 74 126 9 7 16 24 16 37 0 14 18 61 41 105 22 45 38 83 35 86 -2 3
-37 -1 -76 -8 -51 -9 -75 -18 -86 -33 -13 -19 -13 -21 1 -24 8 -2 15 -6 15 -8
0 -14 -46 -93 -67 -116 -14 -14 -22 -31 -19 -37 4 -6 -5 -33 -18 -60 -23 -44
-32 -52 -81 -70 -57 -21 -75 -25 -75 -16 0 19 72 144 86 149 9 4 14 12 10 22
-3 8 14 55 39 104 25 49 45 92 45 95 0 7 -38 4 -99 -9z"/>
<path d="M12051 5246 c-36 -7 -58 -18 -69 -33 -13 -21 -13 -23 2 -23 9 0 16
-2 16 -5 0 -17 -56 -112 -72 -124 -11 -7 -17 -20 -14 -28 3 -7 -10 -45 -29
-83 -19 -38 -35 -78 -35 -89 0 -34 28 -51 81 -51 91 0 194 55 296 157 30 29
58 53 63 53 6 0 10 8 10 18 0 9 9 31 21 47 43 64 101 167 96 172 -3 3 -38 -1
-77 -8 -51 -9 -75 -18 -86 -33 -9 -13 -10 -22 -4 -24 5 -2 10 -8 10 -13 0 -19
-53 -88 -71 -94 -11 -4 -19 -15 -19 -26 0 -40 -164 -188 -185 -167 -10 10 35
104 61 129 13 12 24 33 24 46 0 13 18 59 40 103 22 44 40 82 40 85 0 7 -38 4
-99 -9z"/>
<path d="M3176 4215 c-58 -21 -88 -46 -113 -95 -28 -54 -28 -82 -4 -137 24
-51 59 -75 112 -77 34 -1 46 5 70 32 39 43 39 84 0 123 -39 38 -56 37 -56 -3
0 -28 -4 -33 -26 -36 -54 -6 -65 69 -13 88 26 10 224 14 224 5 0 -3 -27 -60
-61 -128 -63 -125 -92 -167 -117 -167 -10 0 -12 -8 -7 -30 5 -24 -6 -56 -54
-161 -75 -161 -77 -169 -52 -200 17 -21 27 -24 78 -23 35 1 87 12 129 28 83
30 84 30 84 11 0 -27 59 -48 120 -42 111 12 211 75 339 216 45 49 91 93 101
96 12 4 17 12 13 21 -3 8 48 120 112 250 65 129 116 237 114 239 -2 2 -50 -6
-107 -17 -94 -19 -104 -24 -118 -50 -14 -26 -13 -28 6 -28 28 0 24 -14 -54
-165 -40 -78 -69 -123 -83 -130 -17 -7 -23 -18 -23 -42 0 -39 -80 -162 -144
-221 -44 -41 -87 -54 -101 -32 -9 15 63 148 93 170 22 16 28 27 24 47 -3 17
26 87 103 244 60 120 106 220 104 222 -2 2 -49 -5 -104 -15 -92 -18 -102 -22
-117 -49 -17 -28 -16 -29 3 -29 27 0 22 -14 -57 -171 -44 -86 -71 -129 -88
-137 -19 -8 -22 -16 -18 -38 3 -19 -9 -54 -43 -124 -47 -95 -50 -98 -104 -123
-79 -37 -100 -41 -107 -24 -9 24 72 174 103 191 24 12 27 19 25 53 -3 32 14
74 102 251 58 117 106 215 106 217 0 3 -80 5 -177 5 -127 -1 -189 -5 -217 -15z"/>
<path d="M5459 4214 c-83 -25 -137 -111 -119 -189 11 -49 34 -82 71 -101 93
-48 190 66 119 141 -28 30 -64 35 -56 7 4 -10 0 -26 -7 -36 -11 -15 -18 -16
-34 -8 -32 17 -37 43 -13 66 16 16 36 21 95 24 l75 4 0 -63 c0 -35 3 -94 6
-131 7 -65 6 -68 -19 -79 -22 -10 -24 -14 -15 -35 13 -28 31 -6 -200 -256
-181 -197 -232 -237 -306 -245 -52 -6 -81 7 -102 49 -33 64 6 158 67 158 35 0
47 -31 25 -65 -16 -25 -16 -25 20 -25 62 0 116 73 100 136 -23 92 -160 109
-239 30 -79 -78 -75 -249 7 -314 43 -33 92 -45 170 -40 124 8 169 40 364 253
l137 149 10 -100 c6 -56 16 -108 23 -117 33 -39 129 -24 256 39 123 61 133 92
16 50 -127 -46 -137 -39 -147 109 -6 89 -4 98 16 126 18 24 20 33 11 44 -6 8
-10 21 -8 29 2 8 83 101 181 205 97 105 177 192 177 194 0 2 -62 -8 -137 -23
-113 -23 -139 -32 -154 -51 -24 -31 -23 -37 1 -41 16 -2 10 -12 -35 -60 -65
-66 -64 -67 -68 82 l-2 95 -120 2 c-82 1 -135 -3 -166 -13z"/>
<path d="M6990 4223 c-58 -10 -91 -26 -124 -63 -92 -102 -24 -269 100 -245 69
13 98 102 49 150 -33 33 -57 33 -49 0 5 -20 1 -27 -20 -36 -31 -15 -56 2 -56
37 0 45 22 54 141 54 60 0 109 -2 109 -5 0 -21 -114 -226 -130 -235 -13 -7
-20 -21 -20 -41 0 -16 -11 -57 -25 -90 -15 -33 -25 -70 -23 -82 2 -15 -4 -22
-24 -28 -75 -20 -127 -92 -135 -190 -13 -140 100 -230 261 -208 140 19 202 82
327 330 48 97 99 185 112 195 15 13 24 30 24 49 0 17 37 108 86 209 48 99 86
181 84 183 -2 2 -46 -6 -98 -16 -69 -14 -98 -25 -111 -41 -23 -29 -23 -40 2
-40 18 0 14 -11 -35 -109 -35 -71 -61 -112 -75 -116 -16 -5 -20 -15 -20 -51 0
-30 -6 -50 -19 -63 -24 -24 -142 -63 -178 -59 -36 4 -43 40 -12 61 13 10 23
28 24 49 1 18 41 113 89 211 47 99 86 183 86 188 0 9 -289 11 -340 2z m270
-590 c0 -5 -33 -71 -73 -147 -88 -169 -119 -201 -202 -201 -60 0 -97 25 -121
82 -18 42 -18 67 1 108 34 69 104 63 92 -9 -5 -34 -4 -36 22 -36 63 0 114 79
92 142 -6 17 -10 32 -9 33 3 2 166 32 186 34 6 0 12 -2 12 -6z"/>
<path d="M8587 4216 c-128 -35 -176 -173 -92 -265 29 -31 39 -36 80 -36 39 0
51 5 71 28 30 35 31 85 3 121 -29 37 -59 35 -59 -4 0 -34 -23 -49 -49 -33 -24
15 -25 49 -2 72 20 20 33 21 186 21 159 0 165 -1 165 -20 0 -49 -252 -260
-311 -260 -17 0 -28 -4 -25 -9 12 -19 -10 -43 -129 -140 l-124 -101 62 -98
c129 -202 241 -274 389 -251 172 27 237 223 114 345 -50 50 -104 68 -158 53
-118 -32 -95 -209 27 -209 29 0 28 0 15 36 -13 32 2 54 36 54 50 0 83 -71 64
-139 -23 -87 -128 -128 -204 -82 -36 23 -104 116 -150 208 l-26 52 83 65 c63
50 90 66 114 66 25 0 31 4 26 15 -7 21 73 98 204 197 123 93 167 151 167 218
0 26 -6 61 -13 78 l-13 32 -202 -1 c-131 0 -218 -5 -249 -13z"/>
<path d="M4485 3855 c-5 -2 -35 -9 -66 -15 -44 -8 -59 -16 -67 -35 -9 -19 -8
-24 4 -27 12 -2 10 -12 -11 -53 -15 -27 -35 -57 -46 -65 -12 -10 -18 -22 -14
-32 4 -9 -9 -47 -29 -87 -43 -83 -44 -105 -11 -127 28 -18 80 -13 160 17 l49
19 24 -23 c33 -31 103 -29 174 6 57 28 218 185 218 213 0 8 23 59 50 114 28
55 46 100 41 100 -39 0 -158 -34 -168 -47 -17 -22 -16 -33 2 -33 12 0 11 -9
-8 -47 -12 -27 -30 -54 -39 -61 -10 -7 -18 -24 -18 -37 0 -28 -97 -135 -123
-135 -32 0 -11 86 31 123 11 11 18 25 16 32 -3 7 16 54 41 105 25 51 44 94 42
96 -10 10 -153 -28 -164 -43 -17 -22 -16 -33 2 -33 12 0 10 -10 -10 -50 -14
-27 -34 -58 -46 -68 -11 -11 -19 -26 -17 -34 2 -8 -8 -38 -21 -66 -22 -46 -29
-53 -73 -68 -27 -9 -52 -13 -55 -10 -9 8 37 104 66 138 13 16 21 31 18 35 -3
3 16 50 44 104 49 99 50 110 4 94z"/>
<path d="M6396 3840 c-54 -17 -75 -32 -76 -52 0 -5 9 -8 20 -8 11 0 20 -6 21
-12 0 -7 4 -35 8 -61 6 -38 5 -50 -6 -54 -8 -3 -12 -12 -9 -19 3 -7 -22 -38
-57 -71 -34 -32 -86 -81 -115 -109 l-55 -50 64 4 c61 4 67 7 130 63 37 33 69
59 72 59 3 0 8 -23 12 -50 11 -81 60 -98 150 -52 63 31 155 97 155 110 0 7 -3
12 -7 10 -51 -26 -145 -68 -152 -68 -16 0 -29 32 -36 86 -6 39 -4 53 8 63 9 7
14 18 12 24 -2 7 45 55 103 107 l106 95 -57 3 -58 3 -68 -60 c-37 -34 -70 -61
-73 -61 -3 0 -8 27 -12 60 -4 33 -10 60 -14 59 -4 0 -34 -9 -66 -19z"/>
<path d="M7940 3842 c-58 -13 -89 -32 -90 -54 0 -5 7 -8 15 -8 8 0 15 -2 15
-5 0 -15 -65 -117 -77 -122 -8 -3 -12 -12 -9 -20 4 -8 -10 -48 -30 -88 -46
-93 -44 -125 9 -140 l37 -10 -29 -18 c-47 -27 -91 -84 -91 -117 0 -79 163 -67
257 19 27 25 69 85 108 155 10 17 27 26 148 70 33 12 47 23 47 36 0 18 -4 17
-72 -6 -39 -13 -73 -22 -75 -20 -8 7 47 105 63 114 9 5 14 15 12 23 -3 8 17
58 44 113 46 93 48 98 26 93 -13 -3 -51 -11 -84 -17 -49 -10 -64 -17 -73 -36
-8 -19 -8 -24 4 -24 8 0 15 -2 15 -5 0 -17 -53 -106 -70 -118 -12 -9 -18 -20
-14 -30 3 -9 -6 -36 -21 -61 -22 -37 -36 -49 -82 -66 -31 -11 -58 -18 -61 -15
-9 9 51 126 71 140 11 8 17 19 15 27 -3 7 15 55 39 107 23 51 43 95 43 97 0 6
-19 3 -90 -14z m-51 -504 c-32 -56 -54 -78 -76 -78 -28 0 -12 45 32 87 64 61
83 57 44 -9z"/>
<path d="M9507 3840 c-76 -9 -139 -19 -141 -21 -6 -7 -26 -48 -26 -53 0 -3 39
-6 86 -6 l86 0 -14 -22 c-8 -13 -25 -27 -36 -33 -13 -5 -22 -19 -22 -31 0 -11
-9 -29 -20 -39 -16 -14 -24 -16 -51 -6 -80 28 -157 -51 -101 -102 10 -10 26
-17 35 -17 11 0 17 -8 17 -23 0 -19 -14 -29 -81 -60 -94 -45 -179 -119 -179
-159 0 -39 33 -62 89 -61 100 1 202 77 260 191 l30 59 73 21 c40 12 97 27 127
34 47 10 73 30 59 43 -2 3 -60 -9 -127 -25 -67 -17 -124 -30 -127 -30 -2 0 -4
10 -4 23 0 29 43 71 93 92 20 8 37 21 37 28 0 8 11 24 25 37 36 33 93 120 101
153 8 33 10 33 -189 7z m-197 -447 c0 -3 -11 -25 -25 -49 -36 -61 -112 -104
-131 -73 -8 14 39 64 95 100 45 29 61 35 61 22z"/>
<path d="M5720 2551 c-55 -111 -100 -203 -100 -206 0 -3 19 4 42 16 151 77
278 77 278 0 0 -35 -19 -91 -31 -91 -5 0 -9 -11 -9 -25 0 -53 -103 -225 -152
-255 -63 -38 -132 -21 -163 40 -21 40 -19 83 6 114 27 35 69 36 69 2 0 -14 -4
-28 -10 -31 -24 -15 -8 -27 26 -22 47 8 72 31 80 74 9 46 -8 80 -50 99 -91 44
-195 -43 -196 -164 0 -71 40 -126 112 -157 85 -35 178 -7 263 78 34 34 76 88
94 120 18 31 38 57 46 57 8 0 11 7 8 19 -2 10 3 42 11 71 30 100 18 156 -43
197 -40 27 -87 29 -156 8 -27 -8 -51 -12 -53 -10 -2 2 16 41 41 87 l44 83 94
3 c118 4 139 -1 139 -32 0 -29 -24 -50 -46 -42 -11 4 -15 14 -11 31 4 22 1 25
-17 19 -53 -15 -73 -82 -36 -122 64 -69 168 -2 178 113 4 47 1 56 -26 86 l-30
34 -151 3 -150 3 -101 -200z"/>
<path d="M6829 2736 c-105 -28 -206 -112 -297 -248 -33 -49 -59 -78 -71 -78
-14 0 -17 -6 -13 -28 2 -19 -9 -54 -37 -108 -72 -142 -76 -216 -15 -284 108
-120 304 -52 414 144 18 31 39 56 47 56 9 0 12 6 9 18 -4 10 1 39 9 63 35 96
13 188 -50 215 -48 20 -81 17 -147 -10 l-58 -24 18 30 c32 56 120 144 171 171
63 35 134 35 139 1 2 -11 -6 -28 -18 -39 -17 -15 -24 -16 -46 -6 -35 16 -41 7
-22 -33 10 -20 31 -40 54 -51 34 -16 42 -16 78 -4 81 28 108 118 54 177 -47
50 -123 64 -219 38z m-64 -340 c15 -11 17 -21 12 -62 -4 -28 -15 -55 -25 -64
-9 -8 -16 -23 -14 -32 7 -37 -104 -220 -152 -249 -92 -56 -199 25 -166 126 17
52 61 71 80 36 7 -15 6 -23 -5 -35 -22 -21 -19 -26 16 -26 20 0 40 10 60 29
39 40 39 82 -1 123 -16 16 -30 35 -30 43 0 20 67 75 124 101 59 27 75 29 101
10z"/>
<path d="M7460 2732 c-99 -49 -108 -199 -14 -238 42 -18 78 -10 104 23 27 34
25 69 -5 98 -32 33 -51 32 -50 -2 0 -21 -5 -28 -19 -28 -27 0 -44 30 -30 53
10 15 31 17 163 20 l152 3 -106 -120 c-64 -72 -115 -121 -128 -123 -15 -2 -24
-12 -27 -30 -3 -15 -52 -82 -111 -150 -108 -125 -192 -231 -224 -280 l-17 -28
86 0 c62 0 86 3 86 13 0 40 230 352 271 366 20 7 26 14 23 28 -4 14 41 72 165
212 94 106 171 194 171 197 0 2 -102 4 -227 4 -197 0 -233 -2 -263 -18z"/>
<path d="M8373 2725 c-130 -66 -193 -227 -125 -322 l21 -29 -42 -11 c-66 -18
-132 -69 -176 -134 -65 -97 -67 -191 -6 -257 32 -36 36 -37 102 -37 84 1 130
21 196 87 115 115 141 277 59 371 -14 16 -13 17 14 17 65 0 149 82 175 171 39
128 -86 211 -218 144z m135 -62 c39 -53 -35 -189 -92 -167 -25 10 -20 51 10
70 19 13 22 19 12 25 -29 19 -70 9 -100 -23 l-29 -31 7 29 c22 94 147 157 192
97z m-175 -355 c43 -57 12 -174 -64 -243 -35 -31 -46 -36 -82 -33 -35 3 -43 7
-51 30 -23 65 40 206 113 256 42 27 57 26 84 -10z"/>
<path d="M9239 2741 c-75 -23 -138 -76 -195 -164 -26 -40 -54 -77 -61 -84 -10
-8 -15 -36 -16 -91 -2 -95 15 -128 81 -152 37 -13 46 -12 94 4 29 9 59 20 65
22 12 5 -45 -104 -112 -216 -57 -94 -134 -117 -197 -61 -29 26 -33 36 -33 79
0 54 23 92 57 92 24 0 34 -27 20 -51 -16 -26 -15 -29 8 -29 34 0 80 29 90 56
16 42 12 64 -19 95 -24 24 -38 29 -75 29 -39 0 -52 -6 -86 -36 -42 -38 -60
-82 -60 -148 0 -112 131 -184 259 -141 91 30 145 91 246 277 48 90 101 182
117 206 48 74 58 99 58 155 0 39 -6 63 -23 88 -41 63 -138 94 -218 70z m137
-49 c48 -38 59 -111 23 -156 -35 -45 -90 -22 -61 25 17 26 15 29 -13 29 -14 0
-39 -13 -57 -29 -40 -36 -44 -88 -9 -125 l23 -24 -43 -31 c-53 -39 -114 -59
-137 -44 -19 11 -29 83 -13 83 6 0 11 11 11 25 0 29 55 142 94 194 14 19 38
43 53 53 35 23 101 23 129 0z"/>
<path d="M10104 2726 c-71 -33 -118 -78 -165 -157 -23 -38 -49 -71 -59 -74
-12 -4 -16 -12 -13 -25 6 -21 -86 -200 -123 -240 -74 -80 -70 -188 9 -257 68
-59 175 -54 274 13 60 41 88 82 198 282 43 79 88 156 100 170 76 91 77 200 3
269 -53 49 -142 57 -224 19z m167 -26 c26 -15 49 -62 49 -104 0 -43 -38 -93
-64 -83 -25 10 -30 36 -11 57 18 20 17 20 -17 20 -76 0 -117 -91 -68 -153 l20
-26 -80 -152 c-141 -265 -169 -297 -252 -286 -49 7 -75 30 -88 78 -19 70 36
147 76 107 15 -15 10 -48 -7 -48 -5 0 -9 -4 -9 -10 0 -5 14 -10 31 -10 39 0
89 48 89 85 0 29 -24 81 -40 87 -15 5 68 148 87 148 11 0 14 6 10 21 -4 14 12
53 49 118 62 110 70 121 104 144 27 19 91 23 121 7z"/>
<path d="M4785 2726 c-16 -7 -41 -26 -55 -41 -21 -23 -25 -36 -25 -92 0 -59 3
-67 28 -89 37 -32 69 -39 104 -22 38 18 56 58 43 94 -20 53 -70 73 -67 27 2
-24 -2 -28 -23 -28 -18 0 -26 6 -28 23 -6 44 12 52 119 52 l99 0 -26 -52 c-42
-85 -105 -190 -141 -237 -18 -24 -33 -48 -33 -52 0 -5 56 -9 125 -9 l125 0
-84 -167 c-112 -226 -110 -213 -44 -213 l53 0 98 195 c84 169 100 195 120 195
17 0 28 10 40 35 16 34 16 35 -3 35 -11 0 -20 2 -20 5 0 3 38 82 85 175 47 94
81 170 76 170 -38 0 -168 -35 -178 -48 -18 -23 -16 -32 7 -32 11 0 20 -2 20
-5 0 -3 -29 -64 -65 -135 l-65 -130 -80 0 -80 0 64 93 c57 83 146 240 146 260
0 13 -302 7 -335 -7z"/>
<path d="M2650 2714 c-68 -14 -100 -31 -100 -56 0 -4 9 -8 20 -8 11 0 20 -5
20 -10 0 -21 -112 -221 -132 -234 -11 -8 -17 -19 -13 -25 3 -6 -37 -94 -90
-196 l-96 -185 59 0 59 0 82 155 c46 85 91 160 102 166 13 6 18 17 14 28 -3
11 31 84 90 194 52 98 95 180 95 182 0 7 -28 5 -110 -11z"/>
<path d="M3187 2716 c-91 -33 -132 -120 -92 -196 28 -53 87 -76 135 -50 22 12
42 64 33 88 -17 47 -77 76 -66 31 7 -26 -14 -41 -39 -28 -28 15 -23 58 8 69
31 12 201 13 208 1 8 -12 -55 -113 -115 -181 -36 -41 -59 -60 -75 -60 -17 0
-24 -6 -24 -20 0 -13 -42 -55 -127 -125 -114 -95 -153 -140 -153 -176 0 -5 34
-9 77 -9 l76 0 63 -60 c73 -70 114 -90 184 -90 91 0 156 46 181 129 30 101
-47 214 -146 214 -62 0 -95 -30 -95 -89 0 -35 5 -47 31 -68 18 -16 43 -26 61
-26 30 0 31 1 14 19 -21 24 -17 54 7 59 22 4 44 -13 63 -51 20 -37 11 -78 -26
-117 -23 -24 -36 -30 -70 -30 -23 0 -55 8 -72 18 -27 16 -79 84 -120 160 -12
23 -24 31 -49 34 -33 3 -32 4 58 66 50 34 101 62 113 62 11 0 24 8 27 18 4 9
43 56 87 103 118 124 186 272 141 305 -26 19 -246 18 -298 0z"/>
<path d="M4020 2702 c-82 -41 -106 -142 -49 -207 24 -27 39 -35 66 -35 46 0
68 13 82 49 14 32 3 64 -28 88 -25 20 -37 15 -36 -14 0 -21 -5 -28 -19 -28
-27 0 -44 30 -30 53 9 14 29 17 113 20 55 1 101 0 101 -3 0 -16 -86 -172 -134
-245 -31 -46 -56 -85 -56 -87 0 -1 45 -3 100 -3 104 0 115 -5 80 -40 -11 -11
-17 -26 -14 -33 2 -7 -11 -44 -30 -83 -82 -161 -154 -216 -233 -177 -69 33
-90 121 -41 173 22 24 46 23 62 -2 8 -13 6 -22 -8 -37 -19 -21 -19 -21 12 -21
48 0 96 47 96 95 0 107 -159 115 -224 11 -76 -124 7 -266 156 -266 110 0 207
70 283 203 18 31 37 57 42 57 5 0 9 10 9 23 0 12 16 56 35 97 l34 75 -114 5
-114 5 45 60 c51 68 125 192 149 248 l15 37 -157 0 c-130 0 -164 -3 -193 -18z"/>
<path d="M7940 1379 c-103 -47 -170 -131 -209 -264 -27 -91 -52 -120 -109
-130 -33 -5 -42 -12 -51 -36 -9 -27 -9 -29 18 -29 15 0 35 -6 45 -13 18 -13
18 -15 1 -48 -10 -19 -31 -53 -47 -77 -16 -23 -38 -63 -49 -87 -17 -39 -18
-49 -7 -72 12 -24 70 -73 88 -73 3 0 14 16 23 36 14 28 15 39 6 50 -17 20 -3
75 30 122 48 65 74 124 74 166 0 28 8 52 29 80 16 22 42 84 59 139 31 100 69
159 110 172 15 5 49 61 49 81 0 8 -16 3 -60 -17z"/>
<path d="M8545 1361 c-13 -30 -14 -43 -6 -59 14 -26 -1 -68 -50 -145 -46 -71
-63 -119 -55 -158 3 -16 1 -29 -4 -29 -17 0 -61 -87 -90 -183 -31 -97 -71
-157 -105 -157 -13 0 -45 -53 -45 -75 0 -27 113 31 161 82 50 53 74 96 104
188 30 93 53 121 107 130 29 5 42 13 49 32 14 38 11 43 -26 43 -62 0 -59 16
39 174 55 91 48 127 -35 179 -26 16 -27 16 -44 -22z"/>
<path d="M6765 1341 c-161 -47 -194 -110 -141 -266 18 -51 21 -74 14 -83 -8
-9 -8 -16 0 -24 22 -22 12 -34 -42 -57 -138 -57 -185 -135 -137 -229 44 -86
151 -101 272 -39 l70 36 16 -35 c15 -31 21 -34 59 -34 l43 0 -25 62 -24 61 45
48 c37 40 45 55 45 86 0 68 -12 69 -65 7 l-49 -57 -17 49 c-10 27 -18 70 -18
95 -1 30 -6 49 -15 52 -37 15 -61 182 -31 224 33 48 186 68 202 26 15 -39 -55
-102 -149 -133 l-52 -17 26 -26 c22 -22 36 -27 77 -27 57 0 87 11 148 53 97
68 121 159 55 203 -67 45 -201 56 -307 25z m-26 -523 c12 -28 20 -52 19 -53
-2 -2 -26 -14 -55 -29 -79 -39 -123 -33 -123 17 0 14 110 117 125 117 7 0 22
-23 34 -52z"/>
<path d="M4882 1326 c-7 -16 -27 -29 -64 -40 -116 -37 -198 -132 -184 -214 4
-20 8 -47 10 -60 1 -12 12 -32 23 -45 32 -34 65 -107 66 -143 1 -46 -27 -74
-75 -74 -31 0 -41 5 -49 24 -13 27 -4 48 43 109 l30 37 -29 0 c-43 -1 -105
-33 -141 -74 -26 -30 -32 -45 -32 -82 0 -45 24 -84 60 -96 12 -4 13 -9 3 -31
l-13 -27 49 0 c41 0 49 3 59 24 8 17 25 29 54 36 60 16 135 59 164 93 35 42
32 87 -16 172 -21 40 -36 75 -33 79 4 4 -3 13 -14 21 -12 8 -27 31 -33 50 -22
66 36 135 113 135 51 0 64 -21 44 -70 l-15 -40 24 0 c57 0 103 46 104 102 0
30 -6 42 -29 59 -29 21 -29 23 -15 50 l15 29 -54 0 c-47 0 -55 -3 -65 -24z"/>
<path d="M5765 1281 c-86 -39 -190 -194 -166 -247 16 -36 35 -39 86 -14 110
53 209 236 146 270 -24 12 -18 13 -66 -9z m15 -66 c-19 -50 -49 -101 -76 -130
-62 -66 -30 47 37 128 33 40 54 42 39 2z"/>
<path d="M9720 1270 c-24 -24 -25 -38 -4 -68 19 -27 13 -49 -18 -62 l-23 -9
25 0 c28 -1 72 25 95 55 20 26 19 68 -3 87 -25 22 -48 21 -72 -3z"/>
<path d="M9846 1274 c-21 -20 -20 -53 0 -76 14 -15 15 -20 3 -34 -7 -9 -22
-20 -34 -24 -19 -8 -19 -9 3 -9 31 -1 77 24 96 51 31 45 11 108 -34 108 -10 0
-26 -7 -34 -16z"/>
<path d="M10390 1251 c-43 -22 -80 -74 -80 -111 0 -31 34 -80 56 -80 9 0 14
11 14 34 0 48 33 86 74 86 60 0 83 -53 49 -112 -17 -28 -113 -108 -130 -108
-13 0 -92 -106 -108 -144 -22 -52 -19 -66 13 -66 23 0 30 6 40 34 13 37 83
106 106 106 8 0 16 6 19 14 3 7 29 27 59 44 119 68 160 162 105 243 -51 76
-141 101 -217 60z"/>
<path d="M2420 1154 c-28 -59 -50 -110 -50 -115 0 -4 -8 -15 -17 -25 -10 -10
-18 -25 -19 -34 -1 -8 -20 -58 -43 -109 -22 -51 -41 -97 -41 -100 0 -4 14 -7
30 -7 28 0 36 8 87 95 31 53 62 100 70 104 7 4 13 14 13 22 0 11 66 133 132
243 l20 32 -66 0 -66 0 -50 -106z"/>
<path d="M3880 1180 l-40 -80 -49 0 c-48 0 -50 -1 -75 -46 -14 -26 -26 -48
-26 -50 0 -2 20 -4 45 -4 25 0 45 -2 45 -5 0 -3 -14 -32 -30 -65 l-30 -60 -50
0 c-50 0 -50 0 -75 -50 -14 -27 -25 -52 -25 -55 0 -3 20 -5 45 -5 l45 0 -35
-70 c-19 -38 -35 -72 -35 -75 0 -3 21 -5 48 -5 l47 0 39 75 40 75 48 0 48 0
-35 -70 c-19 -38 -35 -72 -35 -75 0 -3 21 -5 48 -3 l47 3 40 75 40 75 40 -3
c22 -1 45 1 51 5 11 8 54 86 54 98 0 3 -20 5 -45 5 -25 0 -45 2 -45 5 0 3 14
32 30 65 l30 60 50 0 c47 0 50 1 75 43 14 24 25 47 25 50 0 4 -20 7 -45 7 -25
0 -45 2 -45 5 0 3 16 37 35 75 19 38 35 72 35 75 0 3 -21 5 -47 3 l-47 -3 -41
-77 -40 -78 -47 0 c-27 0 -48 2 -48 4 0 3 18 39 41 80 l41 76 -51 0 -51 0 -40
-80z m100 -186 c0 -4 -15 -33 -32 -65 l-33 -59 -47 0 -48 0 32 65 32 65 48 0
c26 0 48 -3 48 -6z"/>
<path d="M5850 1114 c-73 -80 -146 -155 -162 -167 -15 -11 -28 -25 -28 -30 0
-5 -39 -52 -87 -105 -49 -52 -114 -124 -146 -158 l-59 -64 50 0 51 0 132 143
c73 78 141 145 151 149 10 4 18 13 18 20 0 7 70 89 155 181 85 92 155 170 155
172 0 3 -21 5 -48 5 l-48 0 -134 -146z"/>
<path d="M3005 1096 c-68 -32 -184 -159 -192 -210 -16 -96 -14 -142 9 -186 31
-61 77 -90 142 -90 59 0 138 33 175 74 l24 26 -36 0 c-20 0 -38 -4 -41 -9 -3
-4 -25 -14 -49 -20 -56 -16 -108 3 -131 48 -21 39 -21 144 -2 161 8 6 13 17
10 24 -7 19 76 107 121 127 72 33 125 19 156 -44 22 -43 19 -111 -9 -158 -14
-26 -69 -65 -78 -57 -2 3 16 48 41 101 25 53 45 98 45 100 0 2 -27 7 -61 11
-76 8 -114 -9 -169 -73 -80 -93 -59 -213 31 -182 23 8 36 7 52 -3 32 -20 109
2 152 44 71 68 91 151 59 230 -43 103 -142 137 -249 86z m109 -151 c7 -18 -19
-45 -45 -45 -20 0 -26 -15 -9 -25 15 -9 -31 -95 -51 -95 -24 0 -32 31 -18 66
7 16 13 38 14 48 5 45 95 87 109 51z"/>
<path d="M9061 956 c-14 -14 -21 -33 -19 -48 8 -55 113 -15 106 41 -4 37 -54
42 -87 7z"/>
<path d="M5792 860 c-36 -15 -116 -101 -140 -151 -12 -25 -22 -62 -22 -82 0
-30 4 -38 24 -43 78 -19 233 153 224 249 -3 28 -7 32 -33 34 -16 1 -40 -2 -53
-7z m22 -62 c-19 -62 -84 -158 -106 -158 -24 0 25 108 72 158 11 12 25 22 31
22 6 0 7 -9 3 -22z"/>
<path d="M2201 676 c-18 -19 -22 -32 -17 -51 6 -22 11 -26 38 -23 42 4 75 47
59 77 -16 28 -52 27 -80 -3z"/>
<path d="M8979 671 c-32 -33 -37 -58 -13 -68 13 -5 11 -10 -12 -31 -40 -37
-11 -41 40 -5 53 37 86 94 67 117 -20 24 -49 19 -82 -13z"/>
<path d="M10228 683 c-34 -40 -25 -83 17 -83 44 0 74 44 59 84 -8 22 -57 20
-76 -1z"/>
</g>
</svg>
